<?xml version="1.0" encoding="utf-8"?>
<!-- Generator: Adobe Illustrator 23.0.3, SVG Export Plug-In . SVG Version: 6.00 Build 0)  -->
<svg version="1.1" id="Layer_1" xmlns="http://www.w3.org/2000/svg" xmlns:xlink="http://www.w3.org/1999/xlink" x="0px" y="0px"
width="40px" height="40px" viewBox="0 0 40 40" enable-background="new 0 0 40 40" xml:space="preserve">
<path fill="#D09C3F" d="M19.7,1C11.2,1,4.3,7.9,4.3,16.4c0,3.8,1.4,7.2,3.6,9.9l0,0l0,0c0.6,0.7,1.2,1.3,1.9,1.9l9.9,9.9l9.7-9.7
c3.5-2.8,5.7-7.1,5.7-11.9C35.1,7.9,28.2,1,19.7,1z M19.7,20.7c-3.7,0-6.7-3-6.7-6.7s3-6.7,6.7-6.7s6.7,3,6.7,6.7
S23.4,20.7,19.7,20.7z"/>
</svg>
