<?xml version="1.0" encoding="utf-8"?>
<!-- Generator: Adobe Illustrator 23.0.3, SVG Export Plug-In . SVG Version: 6.00 Build 0)  -->
<svg version="1.1" id="Layer_1" xmlns="http://www.w3.org/2000/svg" xmlns:xlink="http://www.w3.org/1999/xlink" x="0px" y="0px"
	 width="80px" height="80px" viewBox="0 0 80 80" enable-background="new 0 0 80 80" xml:space="preserve">
<path fill="#FFFFFF" d="M32.2,38.7H18.6c-3.6,0-6.5-2.9-6.5-6.5V17.7c0-3.6,2.9-6.5,6.5-6.5h13.6c3.6,0,6.5,2.9,6.5,6.5v14.5
	C38.7,35.8,35.8,38.7,32.2,38.7z M18.6,14.2c-1.9,0-3.5,1.6-3.5,3.5v14.5c0,1.9,1.6,3.5,3.5,3.5h13.6c1.9,0,3.5-1.6,3.5-3.5V17.7
	c0-1.9-1.6-3.5-3.5-3.5C32.2,14.2,18.6,14.2,18.6,14.2z"/>
<path fill="#FFFFFF" d="M61.4,38.7H47.8c-3.6,0-6.5-2.9-6.5-6.5V17.7c0-3.6,2.9-6.5,6.5-6.5h13.6c3.6,0,6.5,2.9,6.5,6.5v14.5
	C67.9,35.8,65,38.7,61.4,38.7z M47.8,14.2c-1.9,0-3.5,1.6-3.5,3.5v14.5c0,1.9,1.6,3.5,3.5,3.5h13.6c1.9,0,3.5-1.6,3.5-3.5V17.7
	c0-1.9-1.6-3.5-3.5-3.5C61.4,14.2,47.8,14.2,47.8,14.2z"/>
<path fill="#FFFFFF" d="M32.2,68.9H18.6c-3.6,0-6.5-2.9-6.5-6.5V47.9c0-3.6,2.9-6.5,6.5-6.5h13.6c3.6,0,6.5,2.9,6.5,6.5v14.5
	C38.7,66,35.8,68.9,32.2,68.9z M18.6,44.4c-1.9,0-3.5,1.6-3.5,3.5v14.5c0,1.9,1.6,3.5,3.5,3.5h13.6c1.9,0,3.5-1.6,3.5-3.5V47.9
	c0-1.9-1.6-3.5-3.5-3.5H18.6z"/>
<path fill="#FFFFFF" d="M61.4,68.9H47.8c-3.6,0-6.5-2.9-6.5-6.5V47.9c0-3.6,2.9-6.5,6.5-6.5h13.6c3.6,0,6.5,2.9,6.5,6.5v14.5
	C67.9,66,65,68.9,61.4,68.9z M47.8,44.4c-1.9,0-3.5,1.6-3.5,3.5v14.5c0,1.9,1.6,3.5,3.5,3.5h13.6c1.9,0,3.5-1.6,3.5-3.5V47.9
	c0-1.9-1.6-3.5-3.5-3.5H47.8z"/>
</svg>
