<?xml version="1.0" encoding="utf-8"?>
<!-- Generator: Adobe Illustrator 23.0.3, SVG Export Plug-In . SVG Version: 6.00 Build 0)  -->
<svg version="1.1" id="Layer_1" xmlns="http://www.w3.org/2000/svg" xmlns:xlink="http://www.w3.org/1999/xlink" x="0px" y="0px"
	 width="40px" height="40px" viewBox="0 0 40 40" enable-background="new 0 0 40 40" xml:space="preserve">
<path fill="#FFFFFF" d="M17.4,29.2L17.4,29.2c-0.8-0.7-0.8-1.9,0-2.6l6.6-6l-6.6-6c-0.8-0.7-0.7-1.9,0-2.6l0,0l9.4,8.6L17.4,29.2z"
	/>
<path fill="#FFFFFF" d="M20,37c-9.4,0-17-7.6-17-17S10.6,3,20,3s17,7.6,17,17S29.4,37,20,37z M20,3.6C11,3.6,3.6,11,3.6,20
	S10.9,36.4,20,36.4c9,0,16.4-7.3,16.4-16.4C36.4,11,29,3.6,20,3.6z"/>
</svg>
