<?xml version="1.0" encoding="utf-8"?>
<!-- Generator: Adobe Illustrator 23.0.3, SVG Export Plug-In . SVG Version: 6.00 Build 0)  -->
<svg version="1.1" id="Layer_1" xmlns="http://www.w3.org/2000/svg" xmlns:xlink="http://www.w3.org/1999/xlink" x="0px" y="0px"
	 width="80px" height="80px" viewBox="0 0 80 80" style="enable-background:new 0 0 80 80;" xml:space="preserve">
<style type="text/css">
	.st0{fill:url(#SVGID_1_);}
	.st1{fill:url(#SVGID_2_);}
	.st2{fill:#FFFFFF;}
</style>
<linearGradient id="SVGID_1_" gradientUnits="userSpaceOnUse" x1="26.373" y1="47.2615" x2="79.9537" y2="26.4893" gradientTransform="matrix(1 0 0 -1 0 82)">
	<stop  offset="1.331947e-07" style="stop-color:#000000"/>
	<stop  offset="1" style="stop-color:#000000;stop-opacity:0"/>
</linearGradient>
<path class="st0" d="M32,7.7L13.1,22.8C9.7,25.5,8,30,8.7,34.4L12,57.7c0.6,4.5,3.5,8.1,7.5,9.7l22.3,8.8c3.9,1.4,8.2,0.8,11.5-1.8
	l18.9-15.1c3.4-2.7,5.1-7.1,4.4-11.6l-3.3-23.4c-0.6-4.5-3.5-8.1-7.5-9.7L43.5,5.9C39.6,4.3,35.3,5,32,7.7z"/>
<linearGradient id="SVGID_2_" gradientUnits="userSpaceOnUse" x1="9.8213" y1="783.1165" x2="50.3871" y2="759.7604" gradientTransform="matrix(1 0 0 1 0 -728)">
	<stop  offset="0" style="stop-color:#C65F05"/>
	<stop  offset="1" style="stop-color:#D09C3F"/>
</linearGradient>
<path class="st1" d="M28.5,6L9.6,20.6c-3.4,2.6-5.1,6.9-4.4,11.2l3.3,22.5c0.6,4.3,3.5,7.8,7.5,9.4l22.3,8.5
	c3.9,1.4,8.2,0.8,11.5-1.7l18.9-14.6c3.4-2.6,5.1-6.9,4.4-11.2l-3.3-22.6c-0.6-4.3-3.5-7.8-7.5-9.4L40,4.2C36.1,2.7,31.8,3.4,28.5,6
	z"/>
<g>
	<polygon class="st2" points="25.3,31.9 25.3,40.4 18.9,31.9 15.7,31.9 15.7,46 19.1,46 19.1,37.6 25.5,46 28.7,46 28.7,31.9 	"/>
	<polygon class="st2" points="33.2,43.1 33.2,40.4 39.9,40.4 39.9,37.5 33.2,37.5 33.2,34.8 40.6,34.8 40.6,31.9 29.5,31.9 29.5,46 
		40.8,46 40.8,43 	"/>
	<polygon class="st2" points="59.4,31.9 56.6,42.2 53.8,31.9 50.2,31.9 47.5,42.2 44.7,31.9 40.7,31.9 45.5,46 49.2,46 52,36.4 
		54.6,46 58.4,46 63.2,31.9 	"/>
</g>
</svg>
