<?xml version="1.0" encoding="utf-8"?>
<!-- Generator: Adobe Illustrator 23.0.3, SVG Export Plug-In . SVG Version: 6.00 Build 0)  -->
<svg version="1.1" id="Layer_1" xmlns="http://www.w3.org/2000/svg" xmlns:xlink="http://www.w3.org/1999/xlink" x="0px" y="0px"
	 width="80px" height="80px" viewBox="0 0 80 80" style="enable-background:new 0 0 80 80;" xml:space="preserve">
<style type="text/css">
	.st0{fill:url(#SVGID_1_);}
	.st1{fill:#D65600;}
	.st2{fill:#FFFFFF;}
</style>
<linearGradient id="SVGID_1_" gradientUnits="userSpaceOnUse" x1="48.1985" y1="31.7981" x2="6.5399" y2="83.2128">
	<stop  offset="0" style="stop-color:#000000;stop-opacity:5.865922e-02"/>
	<stop  offset="2.290503e-02" style="stop-color:#000000;stop-opacity:0"/>
	<stop  offset="0.5184" style="stop-color:#000000"/>
	<stop  offset="1" style="stop-color:#000000;stop-opacity:0"/>
</linearGradient>
<path class="st0" d="M77.2,40.7c-8.3-8.4-16.6-16.8-24.9-25.2c-1.3-1.3-2.7-2.2-4.4-2.9c-5.3-2.1-10.6-4.2-15.8-6.2
	C28.7,5,25.6,5.7,23,8.2c-3.6,3.5-7.2,7.2-10.7,10.9c-2.4,2.6-3.2,5.6-1.9,9.1c0.5,1.3,1,2.7,1.5,4c0.2,0.5,0.2,0.8-0.2,1.2
	C9.1,36.6,6.9,40.2,5.2,44C3.4,48,2.1,52.2,2,56.6c0,2,0.3,3.9,1.2,5.6c1.5,3,4.6,4.3,7.8,3.4c1.6-0.5,3-1.3,4.3-2.4
	c3.3-2.6,5.9-5.9,8.3-9.3c0.4-0.6,0.6-0.7,1.2-0.1c6.6,6.7,13.1,13.3,19.7,20c0.6,0.6,1.3,1.2,2.1,1.6c3.4,1.8,7.4,1.1,10.2-1.7
	c4.6-4.6,9.2-9.3,13.8-13.9c2.3-2.3,4.6-4.6,6.9-7C80.7,49.4,80.7,44.2,77.2,40.7z M29,31.9c-2.9-0.1-5.3,0.9-7.4,2.7
	c-2.3,1.8-4.1,4-5.8,6.4c-0.2,0.3-0.2,0.6-0.1,1c1,3.2,2.6,6,5.2,8.2c0.3,0.2,0.5,0.4,0.2,0.8c-2.5,3.5-5,7-8.5,9.7
	c-0.8,0.6-1.7,1.2-2.7,1.5c-1.4,0.4-2.6,0-3.3-1.3c-0.7-1.2-1.9-2.6-1.8-4c0.1-4,1.3-7.7,2.9-11.3c2.3-5.1,4.4-9.8,8.7-13.5
	c2.5-2.2,4.9-5,8.3-5.2c0.4,0,2.6-0.2,3.1-0.2c1.2,0,1.5-0.1,1.9-0.9c0.4-0.9,0.1-1.4-1-1.5c-1.7-0.2-3.5,0.1-5.1,0.7
	c-0.7,0.2-0.8,0.1-0.7-0.6c0.4-2.9,3-5.3,5.9-5.4c3.3-0.1,6.1,2,6.8,5.1C36.6,28.1,33.5,32,29,31.9z"/>
<path class="st1" d="M75.1,38.2C66.8,30,58.6,21.7,50.3,13.5c-1.2-1.2-2.7-2.2-4.3-2.8c-5.2-2-10.5-4.1-15.7-6.1
	c-3.4-1.3-6.5-0.6-9,1.8c-3.6,3.5-7.2,7-10.6,10.6c-2.4,2.5-3.1,5.5-1.8,8.9c0.5,1.3,1,2.6,1.5,3.9c0.2,0.5,0.2,0.8-0.2,1.2
	c-2.7,3.2-4.8,6.6-6.5,10.4c-1.8,4-3,8-3.2,12.4c0,1.9,0.3,3.8,1.2,5.5c1.5,2.9,4.5,4.3,7.7,3.3c1.6-0.5,3-1.3,4.3-2.3
	c3.3-2.5,5.8-5.8,8.2-9.1c0.4-0.6,0.6-0.7,1.1-0.1c6.5,6.5,13,13.1,19.6,19.6c0.6,0.6,1.3,1.2,2.1,1.6c3.4,1.7,7.3,1.1,10.1-1.7
	c4.6-4.5,9.1-9.1,13.7-13.7c2.3-2.3,4.6-4.5,6.8-6.8C78.5,46.7,78.5,41.6,75.1,38.2z M27.2,29.6c-2.9-0.1-5.2,0.9-7.4,2.6
	c-2.3,1.8-4.1,3.9-5.7,6.3c-0.2,0.3-0.2,0.6-0.1,0.9c1,3.2,2.6,5.9,5.2,8.1c0.3,0.2,0.5,0.4,0.2,0.8c-2.5,3.5-5,6.8-8.4,9.5
	c-0.8,0.6-1.7,1.1-2.7,1.4c-1.4,0.4-2.5,0-3.3-1.3c-0.7-1.2-0.8-2.6-0.8-4c0.1-3.9,1.3-7.6,2.9-11.1c2.3-5,5.3-9.6,9.6-13.2
	c2.5-2.1,5.2-3.7,8.6-3.9c0.4,0,0.9,0,1.3,0c1.2,0,2-0.7,2.1-1.8c0.1-1-0.7-1.8-1.9-1.9c-1.7-0.2-3.4,0.1-5.1,0.6
	c-0.7,0.2-0.8,0.1-0.7-0.6c0.4-2.9,3-5.2,5.9-5.3c3.3-0.1,6.1,1.9,6.8,5C34.7,25.9,31.6,29.7,27.2,29.6z"/>
<g>
	<path class="st2" d="M34.9,35c-0.6-0.2-1.1-0.3-1.6-0.3c-0.3,0-0.6,0.1-0.8,0.2c-0.2,0.1-0.3,0.3-0.3,0.5c0,0.2,0.1,0.4,0.2,0.6
		c0.2,0.2,0.4,0.3,0.6,0.4c0.2,0.1,0.6,0.2,1.1,0.4c0.7,0.2,1.3,0.4,1.8,0.6c0.5,0.2,0.9,0.5,1.2,0.9c0.3,0.4,0.5,1,0.5,1.7
		s-0.2,1.3-0.5,1.8c-0.4,0.5-0.9,0.8-1.5,1.1c-0.6,0.2-1.3,0.4-2.1,0.4c-0.9,0-1.7-0.1-2.5-0.4c-0.8-0.3-1.6-0.7-2.2-1.2l1-2.1
		c0.5,0.5,1.1,0.8,1.8,1.1c0.7,0.3,1.3,0.4,1.9,0.4c0.4,0,0.7-0.1,0.9-0.2c0.2-0.1,0.3-0.4,0.3-0.6c0-0.2-0.1-0.4-0.3-0.6
		c-0.2-0.2-0.4-0.3-0.6-0.4c-0.3-0.1-0.6-0.2-1.1-0.3c-0.7-0.2-1.3-0.4-1.7-0.6c-0.5-0.2-0.9-0.5-1.2-0.9c-0.3-0.4-0.5-0.9-0.5-1.6
		c0-0.6,0.2-1.2,0.5-1.7c0.3-0.5,0.8-0.8,1.4-1.1c0.6-0.3,1.3-0.4,2.2-0.4c0.7,0,1.5,0.1,2.2,0.3c0.7,0.2,1.4,0.5,1.9,0.8l-1,2.1
		C36.1,35.5,35.5,35.2,34.9,35z"/>
	<path class="st2" d="M45.8,43l-0.7-1.8h-4.4L40,43h-2.8l4.4-10.3h2.8L48.7,43H45.8z M41.5,39.1h2.8l-1.4-3.7L41.5,39.1z"/>
	<path class="st2" d="M48.9,32.7h2.7v8h4.4V43h-7V32.7z"/>
	<path class="st2" d="M56.4,32.7h8.1v2.1h-5.4v1.9H64v2.1l-4.9,0v1.9h5.6V43h-8.3V32.7z"/>
	<path class="st2" d="M42.9,47.9c0.8,0.5,1.5,1.1,2,1.9c0.5,0.8,0.7,1.7,0.7,2.7c0,1-0.2,1.9-0.7,2.7c-0.5,0.8-1.1,1.5-2,1.9
		c-0.8,0.5-1.8,0.7-2.8,0.7s-2-0.2-2.8-0.7c-0.8-0.5-1.5-1.1-2-1.9c-0.5-0.8-0.7-1.7-0.7-2.7c0-1,0.2-1.9,0.7-2.7
		c0.5-0.8,1.1-1.4,2-1.9c0.8-0.5,1.8-0.7,2.8-0.7S42,47.4,42.9,47.9z M38.7,49.9c-0.4,0.3-0.8,0.6-1,1.1c-0.3,0.5-0.4,1-0.4,1.5
		c0,0.6,0.1,1.1,0.4,1.5c0.3,0.5,0.6,0.8,1,1.1c0.4,0.3,0.9,0.4,1.4,0.4c0.5,0,1-0.1,1.4-0.4c0.4-0.3,0.8-0.6,1-1.1
		c0.2-0.5,0.4-1,0.4-1.5c0-0.6-0.1-1.1-0.4-1.5c-0.2-0.5-0.6-0.8-1-1.1c-0.4-0.3-0.9-0.4-1.4-0.4C39.6,49.5,39.1,49.6,38.7,49.9z"/>
	<path class="st2" d="M46.2,47.3h7.7l0,2.1h-5v2.3h4.6v2.1h-4.6v3.7h-2.7V47.3z"/>
	<path class="st2" d="M54.4,47.3H62l0,2.1h-5v2.3h4.6v2.1H57v3.7h-2.7V47.3z"/>
</g>
</svg>
