<?xml version="1.0" encoding="utf-8"?>
<!-- Generator: Adobe Illustrator 23.0.3, SVG Export Plug-In . SVG Version: 6.00 Build 0)  -->
<svg version="1.1" id="Layer_1" xmlns="http://www.w3.org/2000/svg" xmlns:xlink="http://www.w3.org/1999/xlink" x="0px" y="0px"
	 width="40px" height="40px" viewBox="0 0 40 40" enable-background="new 0 0 40 40" xml:space="preserve">
<g>
	<path fill="#FFFFFF" d="M15.5,21.9v12.6H3.8v-10c0-5.4,0.6-9.3,1.9-11.7c1.7-3.2,4.4-5.7,8-7.3l2.7,4.2c-2.2,0.9-3.8,2.3-4.9,4.1
		c-1,1.8-1.6,4.5-1.8,8h5.8V21.9z M34.2,21.9v12.6H22.5v-10c0-5.4,0.6-9.3,1.9-11.7c1.7-3.2,4.4-5.7,8-7.3l2.7,4.2
		c-2.2,0.9-3.8,2.3-4.9,4.1c-1,1.8-1.6,4.5-1.8,8h5.8C34.2,21.8,34.2,21.9,34.2,21.9z"/>
</g>
</svg>
