<?xml version="1.0" encoding="utf-8"?>
<!-- Generator: Adobe Illustrator 23.0.3, SVG Export Plug-In . SVG Version: 6.00 Build 0)  -->
<svg version="1.1" id="Layer_1" xmlns="http://www.w3.org/2000/svg" xmlns:xlink="http://www.w3.org/1999/xlink" x="0px" y="0px"
width="40px" height="40px" viewBox="0 0 40 40" enable-background="new 0 0 40 40" xml:space="preserve">
<path fill="#D09C3F" d="M20,37.8c-9.8,0-17.8-8-17.8-17.9C2.1,10,10.1,2,20,2s17.8,8,17.8,17.9C37.8,29.8,29.8,37.8,20,37.8z
M20,4.5c-8.4,0-15.3,6.9-15.3,15.4S11.5,35.3,20,35.3s15.3-6.9,15.3-15.4S28.4,4.5,20,4.5z"/>
<polygon fill="#D09C3F" points="26.7,21.1 18.7,21.1 18.7,10.7 21.2,10.7 21.2,18.6 26.7,18.6 "/>
<path fill="none" d="M30.8,21.1v-2.5h0.7c-0.6-5.4-4.9-9.7-10.4-10.3V9h-2.5V8.3c-5.4,0.6-9.8,4.9-10.4,10.3h0.8v2.5H8.3
c0.6,5.5,4.9,9.8,10.4,10.4v-0.8h2.5v0.8c5.5-0.6,9.8-4.9,10.4-10.4H30.8z"/>
<path fill="#D09C3F" d="M19.9,5.7c-7.8,0-14.2,6.4-14.2,14.2c0,7.8,6.4,14.2,14.2,14.2c7.8,0,14.2-6.4,14.2-14.2
C34.1,12.1,27.8,5.7,19.9,5.7z M21.2,31.5v-0.8h-2.5v0.8C13.2,31,8.9,26.6,8.3,21.1h0.8v-2.5H8.3c0.6-5.4,4.9-9.8,10.4-10.3V9h2.5
V8.3c5.4,0.6,9.8,4.9,10.4,10.3h-0.7v2.5h0.8C31,26.6,26.6,31,21.2,31.5z"/>
</svg>
