<?xml version="1.0" encoding="utf-8"?>
<!-- Generator: Adobe Illustrator 23.0.3, SVG Export Plug-In . SVG Version: 6.00 Build 0)  -->
<svg version="1.1" id="Layer_1" xmlns="http://www.w3.org/2000/svg" xmlns:xlink="http://www.w3.org/1999/xlink" x="0px" y="0px"
width="40px" height="40px" viewBox="0 0 40 40" enable-background="new 0 0 40 40" xml:space="preserve">
<polygon fill="#D09C3F" points="29.9,20.3 35.1,15.2 29.9,10 "/>
<polygon fill="#D09C3F" points="5.2,14.5 4.5,15.2 9.8,20.4 9.8,10 "/>
<polygon fill="#D09C3F" points="4.4,17.2 4.4,17.4 4.4,18.1 4.4,34.6 13.1,25.9 13.1,25.9 13.2,25.8 4.4,17 "/>
<path fill="#D09C3F" d="M33.1,34.4L33.1,34.4L20.9,22.2c-0.6-0.6-1.6-0.6-2.2,0L6.2,34.7l0,0l-0.7,0.7h28.7l-0.3-0.3L33.1,34.4z"/>
<polygon fill="#D09C3F" points="26.4,25.7 26.5,25.9 26.5,25.9 35.2,34.6 35.2,17.4 35.2,17.2 35.2,16.9 "/>
<path fill="#D09C3F" d="M17.8,21.2c0.5-0.5,1.3-0.9,2.1-0.9c0.8,0,1.5,0.3,2.1,0.9l0.5,0.5l3.1,3.1l3.1-3.1V8.6l-4-4H11.1v17.2l3,3
L17.8,21.2z M15.1,8.6h9.4V10h-9.4V8.6z M15.1,12.6h6.7V14h-6.7C15.1,14,15.1,12.6,15.1,12.6z M15.1,16.7h9.4V18h-9.4V16.7z"/>
</svg>
