<?xml version="1.0" encoding="utf-8"?>
<!-- Generator: Adobe Illustrator 23.0.3, SVG Export Plug-In . SVG Version: 6.00 Build 0)  -->
<svg version="1.1" id="Layer_1" xmlns="http://www.w3.org/2000/svg" xmlns:xlink="http://www.w3.org/1999/xlink" x="0px" y="0px"
	 width="40px" height="40px" viewBox="0 0 40 40" enable-background="new 0 0 40 40" xml:space="preserve">
<path fill="#D09C3F" d="M12.3,5.9h16v4h-16C12.3,9.9,12.3,5.9,12.3,5.9z M34.3,11.9h-28c-1.1,0-2,0.9-2,2v10c0,1.1,0.9,2,2,2h6v8h16
	v-8h6c1.1,0,2-0.9,2-2v-10C36.3,12.8,35.4,11.9,34.3,11.9 M26.3,31.9h-12v-10h12V31.9z M34.8,14.9c0,0.8-0.6,1.5-1.5,1.5
	c-0.8,0-1.5-0.7-1.5-1.5s0.6-1.5,1.5-1.5C34.1,13.4,34.8,14.1,34.8,14.9"/>
</svg>
