<svg  xmlns="http://www.w3.org/2000/svg"  x="0px" y="0px" width="300px" height="300px" viewBox="0 0 300 300">

<linearGradient id="SVGID_1_" gradientUnits="userSpaceOnUse" x1="153" y1="67" x2="153" y2="15" gradientTransform="matrix(1 0 0 -1 0 300)">
<stop  offset="0" style="stop-color:#B0772B"/>
<stop  offset="0.5" style="stop-color:#FDE551"/>
<stop  offset="1" style="stop-color:#B0772B"/>
</linearGradient>

<linearGradient id="SVGID_2_" gradientUnits="userSpaceOnUse" x1="153" y1="286" x2="153" y2="98" gradientTransform="matrix(1 0 0 -1 0 300)">
<stop  offset="0" style="stop-color:#B0772B"/>
<stop  offset="0.5" style="stop-color:#FDE551"/>
<stop  offset="1" style="stop-color:#B0772B"/>
</linearGradient>

<path  fill="url(#SVGID_2_)" d="M234.6,13.3L234.6,13.3c0,0-0.1,0.1,0,0.1
c1.6,2.7,5,11.5,4,11.8l0,0c-1.2,0.3-11.9-9.1-14.3-11.1l0,0c-0.2-0.2-0.4,0.1-0.2,0.3l0,0c5.1,6.9,16.1,18.1,22.3,21.3l0,0
C245.7,27.3,241.3,18.9,234.6,13.3L234.6,13.3C234.7,13.3,234.6,13.3,234.6,13.3L234.6,13.3z M71.5,13.3L71.5,13.3L71.5,13.3
c-6.7,5.6-11.1,14.1-11.8,22.4l0,0C65.9,32.5,77,21.3,82,14.4l0,0c0.1-0.3,0-0.5-0.2-0.3l0,0c-2.4,1.9-13,11.4-14.3,11l0,0
C66.5,24.8,69.9,16,71.5,13.3L71.5,13.3C71.6,13.3,71.6,13.3,71.5,13.3L71.5,13.3z M246,19.1c0-0.1,0-0.2,0.1-0.2l0,0
c0.1,0,0.1,0,0.2,0.1l0,0c2.5,2.1,9.1,11.5,10.9,17.3l0,0c3.4,10.9,1.8,22.2,1.7,22.1l0,0c-5-5.9-24.1-25.3-24.9-26.7l0,0
c-0.1-0.4,0.4,0,0.5,0l0,0c5.7,4.5,12.4,9.1,18.2,13.6l0,0c0.5,0.4,0.5-0.2,0.5-0.4l0,0C252.1,35.8,249.4,27.8,246,19.1L246,19.1z
M59.8,19c0.1-0.1,0.2-0.1,0.2-0.1l0,0c0.1,0,0.2,0.1,0.1,0.2l0,0c-3.3,8.8-6.1,16.8-7.1,26l0,0c0,0.1,0,0.7,0.5,0.4l0,0
c5.7-4.5,12.4-9.1,18.2-13.6l0,0c0.1-0.1,0.6-0.4,0.5,0l0,0c-0.9,1.4-19.9,20.8-24.9,26.7l0,0c-0.1,0.1-1.8-11.2,1.7-22.1l0,0
C50.7,30.5,57.3,21.1,59.8,19L59.8,19z M150.1,26l2.7-1.6l2.7,1.6l0,0c0.1,0.1,25.2,15.5,67.3,15.5h4.6l0.2,4.2l0,0
c0,0.1,2.7,53.8-12.2,85.2l0,0c-5.5,11.5-13.4,22.1-24.1,31.2l0,0c-5.8,4.9-12.4,9.4-19.9,13.3l0,0c0.4,0.1,0.8,0.2,1.2,0.3l0,0
c6.5,2.2,13.1,4.3,19.6,6.5l0,0c5.1,1.7,10.1,3.6,15.5,4.2l0,0c5.3,0.6,10.6,0.3,15.6-1.5l0,0c2.1-1,1.7,0,1.6,0.2l0,0
c-1.5,2.2-3.3,3.9-5.4,5.4l0,0c-3.3,2.3-7,3.5-11,4.1l0,0c-5.1,0.9-10.1,0.7-15-1l0,0c-4-1.4-7.6-3.5-11-5.9l0,0
c-3.8-2.7-7.5-5.4-11.7-7.5l0,0c-2.1-1.1-4.3-1.6-6.5-1.5l0,0c-1.1,0.5-2.2,0.9-3.3,1.4l0,0c0.8,0.4,1.5,0.8,2.2,1.2l0,0
c6.8,3.8,13.6,7.6,19.5,12.6l0,0c1.1,0.9,2.1,1.9,3.2,2.9l0,0c0.9,0.8,1,1.4,0.3,2.2l0,0c-1,1.3-1.9,2.2-3.5,2.8l0,0
c-0.9,0.3-2.5,0.2-4.5-1.8l0,0c-0.2-0.2-9.4-8.4-13.9-12.2l0,0c-2.3-1.9-4.8-3.8-7.4-5.4l0,0c-0.3-0.2-0.6-0.3-0.9-0.5l0,0
c-0.5,0.2-1,0.4-1.5,0.6l-1.8,0.6l-1.7-0.6l0,0c-0.4-0.1-0.8-0.3-1.2-0.4l0,0c-0.2,0.1-0.4,0.2-0.7,0.4l0,0
c-2.6,1.6-5.1,3.5-7.4,5.4l0,0c-4.5,3.8-13.7,12-13.9,12.2l0,0c-2,2-3.6,2-4.5,1.8l0,0c-1.6-0.6-2.4-1.5-3.5-2.8l0,0
c-0.6-0.8-0.5-1.4,0.4-2.2l0,0c1-1,2.1-1.9,3.1-2.9l0,0c5.9-5.1,12.7-8.9,19.6-12.6l0,0c0.7-0.4,1.3-0.7,2-1.1l0,0
c-1.2-0.5-2.4-1-3.6-1.5l0,0c-2,0-4,0.5-5.9,1.5l0,0c-4.2,2.1-7.9,4.8-11.7,7.5l0,0c-3.4,2.4-7,4.5-11,5.9l0,0
c-4.9,1.7-9.9,1.9-15,1l0,0c-4-0.7-7.7-1.9-11-4.1l0,0c-2.1-1.4-3.9-3.2-5.4-5.4l0,0c-0.1-0.2-0.5-1.2,1.6-0.2l0,0
c5.1,1.8,10.3,2.1,15.6,1.5l0,0c5.4-0.7,10.4-2.5,15.5-4.2l0,0c6.5-2.2,13.1-4.4,19.6-6.5l0,0c0.3-0.1,0.5-0.2,0.8-0.2l0,0
c-7.6-3.9-14.3-8.4-20.1-13.4l0,0c-10.6-9-18.6-19.6-24-31.1l0,0C75.5,99.8,78.1,46.6,78.1,45.7l0.1-4.2h4.6l0,0
C125,41.4,150.1,26,150.1,26L150.1,26z M120.9,155.6c8.6,7.3,19.2,13.5,31.8,18.2l0,0c12.7-4.7,23.3-10.9,31.9-18.2l0,0
c9.7-8.2,16.9-17.8,21.8-28.2l0,0c11.7-24.5,11.8-64.4,11.6-77.3l0,0c-34.3-0.9-57.7-11.5-65.3-15.4l0,0
c-7.5,3.9-30.9,14.5-65.2,15.4l0,0c-0.3,12.9-0.1,52.8,11.6,77.3l0,0C104.1,137.8,111.3,147.4,120.9,155.6L120.9,155.6z M263.2,39.2
c0.7,6.3,0.7,23.6-2.8,30.5l0,0c-4.9-6.2-10-12.1-16.7-16.8l0,0c-0.4-0.1-0.8,0-0.5,0.3l0,0c5.4,5.8,18.5,29.8,19.9,33.1l0,0
c2.9-4.8,7.1-16.8,5.5-28.6l0,0c-1.2-8.6-4.7-18.2-5-18.6l0,0c-0.2-0.2-0.3-0.3-0.3-0.3l0,0C263.2,38.8,263.2,39,263.2,39.2
L263.2,39.2z M42.5,39.1c-0.3,0.3-3.8,9.9-5,18.6l0,0c-1.6,11.7,2.5,23.7,5.4,28.6l0,0c1.4-3.3,14.6-27.3,20-33.1l0,0
c0.2-0.3-0.2-0.4-0.5-0.3l0,0c-6.6,4.7-11.8,10.6-16.7,16.8l0,0c-3.5-6.9-3.5-24.3-2.8-30.5l0,0c0-0.2,0-0.4-0.1-0.4l0,0
C42.8,38.8,42.7,38.9,42.5,39.1L42.5,39.1z M168.7,67.1v5.8c0,0,2.8-0.1,9.6-0.1l0,0c4.1,0,6.7,2.6,4.7,7.1l0,0
c-1.5,3.2-25.9,56.4-25.9,56.4l0,0c0,0-22.2-49.8-25.5-57.2l0,0c-2-4.5,0-6.2,3.7-6.2l0,0h10.6v-5.8H98.4v5.8h3.3
c6.4,0,8.6,2.3,12,9.8l0,0c3.5,7.5,31.9,69.7,31.9,69.7l0,0H158c0,0,35-69.9,37.1-73.6l0,0c2.1-3.7,3.8-5.9,7.7-5.9l0,0h4.8v-5.8
L168.7,67.1L168.7,67.1z M274.8,71.4c0-0.1,0.1-0.1,0.1-0.1l0,0c0.1,0,0.3,0.3,0.3,0.4l0,0c5.3,26.4-17.3,47.8-17.6,48.1l0,0
c-0.2-0.8-9.9-45.6-10-46.1l0,0c-0.1-0.5,0.3-0.5,0.5-0.1l0,0c2.2,3.2,10.9,20.6,14.9,29.1l0,0C265.9,100.4,274.4,81.6,274.8,71.4
L274.8,71.4z M31,71.8c0-0.1,0.2-0.4,0.3-0.4l0,0c0,0,0.1,0,0.1,0.1l0,0c0.4,10.2,8.8,28.9,11.7,31.3l0,0C47.2,94.4,55.8,77,58,73.7
l0,0c0.3-0.4,0.6-0.4,0.5,0.1l0,0c-0.1,0.5-9.7,45.4-9.9,46.1l0,0C48.2,119.6,25.7,98.1,31,71.8L31,71.8z M247.7,101
c-0.9,5.3-7.6,45.2-7.7,45.7l0,0c1.3-0.3,24.5-8.1,33-38.3l0,0c0-0.2-0.2-0.2-0.3,0l0,0c-7.1,8.2-12.3,17.3-21.4,24.3l0,0
c-0.2-2.4-1.2-23.2-3.4-31.7l0,0c0-0.1-0.1-0.2-0.1-0.2l0,0C247.8,100.8,247.7,100.9,247.7,101L247.7,101z M58.2,101
c-2.1,8.5-3.2,29.3-3.3,31.7l0,0c-9.1-7.1-14.3-16.1-21.4-24.3l0,0c-0.1-0.2-0.3-0.2-0.3,0l0,0c8.5,30.2,31.6,38,33,38.3l0,0
c-0.2-0.5-6.8-40.5-7.7-45.7l0,0c0-0.1-0.1-0.2-0.1-0.2l0,0C58.3,100.8,58.2,100.9,58.2,101L58.2,101z M76.8,156.9
c0.2,0.4,0.3,1.3-0.3,1l0,0c-11.2-2.9-21.7-5.3-34.7-20.6l0,0c-0.1-0.2-0.1,0.4-0.1,0.4l0,0c0.1,0.6,0.1,1.3,0.3,1.9l0,0
c1.5,6,4.7,10.9,9.2,15.1l0,0c4.8,4.4,10.4,7.3,16.5,9.4l0,0c6.3,2.1,12.8,3.1,19.4,3.5l0,0c0.9,0,1.9,0,2.9,0l0,0
c-0.3-0.3-0.4-0.6-0.6-0.8l0,0c-2.4-2.9-19.7-37.5-20.2-38.1l0,0C69.4,141,75.2,153.6,76.8,156.9L76.8,156.9z M236.8,128.8
c-1.4,2.4-17.9,35.2-20.1,38l0,0c-0.2,0.2-0.4,0.5-0.6,0.8l0,0c1,0,2,0,2.9,0l0,0c6.6-0.4,13.1-1.4,19.4-3.5l0,0
c6.1-2.1,11.7-5,16.5-9.4l0,0c4.5-4.2,7.8-9.1,9.3-15.1l0,0c0.4-1.3,0.6-2.7,0.2-2.3l0,0c-13,15.3-23.4,17.6-34.7,20.6l0,0
c-0.6,0.3-0.5-0.6-0.3-1l0,0C231,153.6,236.7,141.2,236.8,128.8L236.8,128.8C236.9,128.8,236.8,128.8,236.8,128.8L236.8,128.8
L236.8,128.8L236.8,128.8z M219.3,149.8c-10.3,10.2-22.2,18.9-35.6,25.5l0,0c1.9,0.7,3.7,1.3,5.4,1.9l0,0c5.4,1.8,10.8,3.5,16.4,4.4
l0,0c9.9,1.6,19.3,0.5,28.1-4.5l0,0c3.3-1.9,10.9-8.7,11-8.8l0,0c0.1-0.1,0.1-0.3-0.1-0.2l0,0c-20.4,5.7-35.2,5.2-39.1,4.8l0,0
c-0.2,0-0.4,0-0.5,0l0,0c4-3.6,12-13,15.2-22.5l0,0c0.2-0.7,0.1-1-0.2-1l0,0C219.8,149.5,219.6,149.6,219.3,149.8L219.3,149.8z
M86,150.5c3.2,9.5,11.2,18.9,15.2,22.5l0,0c-0.1,0-0.3,0-0.5,0l0,0c-3.9,0.4-18.7,0.9-39.1-4.8l0,0c-0.2-0.1-0.2,0.1-0.1,0.2l0,0
c0.1,0.1,7.7,6.8,11,8.8l0,0c8.8,5,18.2,6.1,28,4.5l0,0c5.6-0.9,11-2.6,16.4-4.4l0,0c1.7-0.6,3.5-1.2,5.4-1.9l0,0
c-13.4-6.7-25.2-15.4-35.6-25.5l0,0c-0.3-0.2-0.5-0.3-0.6-0.3l0,0C85.9,149.5,85.8,149.9,86,150.5L86,150.5z"/>

<rect x="31.5" y="211.6" fill="#00A34C" width="81.1" height="10.1"/>
<rect x="112.6" y="211.6"  fill="#FFFFFF" width="81.1" height="10.1"/>
<rect x="193.6" y="211.6"  fill="#E71E25" width="81.1" height="10.1"/>

<path  fill="url(#SVGID_1_)" d="M257.8,232.6l-11.9,19.5h-0.2l-11.8-19.5H218l20.3,29.9v22
H253v-22l20.5-29.9H257.8L257.8,232.6z M171.7,232.6v51.9h41.8V277h-27.4v-44.3L171.7,232.6L171.7,232.6z M126.1,232.6l-18.6,51.9
H123l4.1-13h17.1l3.6,13h15.8L146,232.6H126.1L126.1,232.6z M135.6,242.7h0.5l5.7,21h-12.6L135.6,242.7L135.6,242.7z M56.2,232.6
v7.7h17.1v44.2H88v-44.2h16.9v-7.7H56.2L56.2,232.6z M32.5,284.5h14.7v-51.9H32.5V284.5z"/>


</svg>
