<?xml version="1.0" encoding="utf-8"?>
<!-- Generator: Adobe Illustrator 23.0.1, SVG Export Plug-In . SVG Version: 6.00 Build 0)  -->
<svg version="1.1" id="Layer_1" xmlns="http://www.w3.org/2000/svg" xmlns:xlink="http://www.w3.org/1999/xlink" x="0px" y="0px"
	 width="300px" height="120px" viewBox="0 0 300 120" style="enable-background:new 0 0 300 120;" xml:space="preserve">
<linearGradient id="SVGID_1_" gradientUnits="userSpaceOnUse" x1="215.7639" y1="-129.4621" x2="215.7639" y2="-98.8559" gradientTransform="matrix(1 0 0 1 0 180)">
	<stop  offset="0" style="stop-color:#B0782C"/>
	<stop  offset="0.1588" style="stop-color:#CB9E37"/>
	<stop  offset="0.3089" style="stop-color:#E3C244"/>
	<stop  offset="0.4276" style="stop-color:#F5DA4E"/>
	<stop  offset="0.5" style="stop-color:#FDE552"/>
	<stop  offset="0.5721" style="stop-color:#F5DB4E"/>
	<stop  offset="0.6887" style="stop-color:#E4C344"/>
	<stop  offset="0.8351" style="stop-color:#CCA038"/>
	<stop  offset="1" style="stop-color:#B0782C"/>
</linearGradient>
<path style="fill:url(#SVGID_1_);" d="M277.4,50.3l-7,11.5h-0.1l-6.9-11.5H254L266,67.9v12.9h8.7V67.9l12.1-17.6H277.4L277.4,50.3z
	 M226.8,50.3v30.5h24.6v-4.4h-16.1V50.4L226.8,50.3L226.8,50.3z M199.9,50.3L189,80.8h9.1l2.4-7.7h10.1l2.1,7.7h9.3l-10.4-30.5
	H199.9L199.9,50.3z M205.5,56.2h0.3l3.4,12.4h-7.4L205.5,56.2L205.5,56.2z M158.8,50.3v4.5h10.1v26h8.7v-26h9.9v-4.5H158.8
	L158.8,50.3z M144.8,80.8h8.7V50.3h-8.7V80.8z"/>
<rect x="143.6" y="85.7" style="fill-rule:evenodd;clip-rule:evenodd;fill:#00A651;" width="47.8" height="6"/>
<rect x="191.4" y="85.7" style="fill-rule:evenodd;clip-rule:evenodd;fill:#FFFFFF;" width="47.8" height="6"/>
<rect x="239.1" y="85.7" style="fill-rule:evenodd;clip-rule:evenodd;fill:#EA2328;" width="47.8" height="6"/>
<linearGradient id="SVGID_2_" gradientUnits="userSpaceOnUse" x1="73.5407" y1="105.5885" x2="73.5407" y2="14.5">
	<stop  offset="0" style="stop-color:#B0782C"/>
	<stop  offset="0.5" style="stop-color:#FDE552"/>
	<stop  offset="1" style="stop-color:#B0782C"/>
</linearGradient>
<path style="fill-rule:evenodd;clip-rule:evenodd;fill:url(#SVGID_2_);" d="M34.5,23.4c0.1-0.2-0.2,0-0.2,0c-2.8,2.2-6,4.4-8.8,6.6
	c-0.2,0.2-0.2-0.1-0.2-0.2c0.5-4.5,1.8-8.3,3.4-12.6c0-0.1-0.1-0.1-0.2,0c-1.2,1-4.4,5.6-5.2,8.4c-1.7,5.3-0.8,10.7-0.8,10.7
	C24.9,33.4,34.1,24.1,34.5,23.4 M30,33.8c0.1-0.1-0.1-0.2-0.2-0.1c-3.2,2.3-5.7,5.1-8,8.1C20,38.4,20,30,20.4,27c0-0.1,0-0.3-0.2,0
	c-0.1,0.2-1.8,4.8-2.4,9C17,41.6,19,47.4,20.4,49.7C21.1,48.2,27.4,36.6,30,33.8z M126.6,57.7c-2-4.1-6.2-12.5-7.2-14
	c-0.1-0.2-0.3-0.2-0.2,0.1c0,0.2,4.7,21.9,4.8,22.3c0.2-0.2,11-10.5,8.5-23.2c0-0.1-0.1-0.3-0.2-0.2C132.1,47.5,128,56.5,126.6,57.7
	z M117.3,33.6c-0.2-0.1-0.4,0-0.2,0.1c2.6,2.8,8.9,14.4,9.6,16c1.4-2.3,3.4-8.1,2.6-13.8c-0.6-4.2-2.3-8.8-2.4-9
	c-0.2-0.2-0.2-0.1-0.2,0c0.4,3,0.4,11.4-1.3,14.7C123,38.8,120.5,35.9,117.3,33.6z M118.6,25.3c-0.3-4-2.5-8.1-5.7-10.8
	c0,0-0.1,0-0.1,0c0.8,1.3,2.4,5.6,1.9,5.7c-0.6,0.1-5.7-4.4-6.9-5.3c-0.1-0.1-0.2,0-0.1,0.2C110.3,18.4,115.6,23.8,118.6,25.3z
	 M121.6,30c-2.8-2.2-6-4.4-8.8-6.6c0,0-0.3-0.2-0.2,0c0.4,0.7,9.6,10,12,12.9c0,0,0.8-5.4-0.8-10.7c-0.9-2.8-4.1-7.4-5.2-8.4
	c-0.1-0.1-0.2,0-0.2,0c1.6,4.2,2.9,8.1,3.4,12.6C121.8,29.9,121.8,30.2,121.6,30z M41.8,89c0.5,0,0.9,0,1.4,0
	c-0.1-0.2-0.2-0.3-0.3-0.4c-1.1-1.4-9.5-18.1-9.8-18.4c0,5.9,2.8,12,3.6,13.6c0.1,0.2,0.2,0.6-0.1,0.5c-5.4-1.4-10.4-2.5-16.7-9.9
	c-0.1-0.1,0,0.2-0.1,0.2c0,0.3,0.1,0.6,0.1,0.9c0.7,2.9,2.3,5.3,4.5,7.3c2.3,2.1,5,3.5,8,4.5C35.4,88.3,38.6,88.8,41.8,89z
	 M127.2,74.4c-6.3,7.4-11.3,8.5-16.7,9.9c-0.3,0.2-0.2-0.3-0.1-0.5c0.8-1.6,3.6-7.7,3.6-13.6c-0.2,0.3-8.6,17-9.8,18.4
	c-0.1,0.1-0.2,0.2-0.3,0.4c0.5,0,1,0,1.4,0c3.2-0.2,6.3-0.7,9.4-1.7c2.9-1,5.7-2.4,8-4.5c2.2-2,3.7-4.4,4.5-7.3
	c0.1-0.3,0.1-0.6,0.1-0.9C127.3,74.6,127.3,74.3,127.2,74.4z M131.3,60.4c-3.4,4-5.9,8.3-10.3,11.7c-0.1-1.2-0.6-11.2-1.6-15.3
	c0-0.1-0.1-0.1-0.1,0c-0.4,2.5-3.6,21.8-3.7,22.1c0.7-0.2,11.8-3.9,15.9-18.5C131.4,60.4,131.3,60.4,131.3,60.4z M23.1,66
	c0.1-0.4,4.7-22,4.8-22.3c0-0.2-0.1-0.2-0.2-0.1c-1,1.6-5.2,10-7.2,14c-1.4-1.2-5.5-10.2-5.6-15.1c-0.1-0.1-0.2,0.1-0.2,0.2
	C12.1,55.5,22.9,65.8,23.1,66z M117.7,89.3c-9.9,2.7-17,2.5-18.9,2.3c-0.1,0-0.2,0-0.2,0c1.9-1.7,5.8-6.3,7.3-10.9
	c0.1-0.5,0-0.7-0.4-0.3c-5,4.9-10.7,9.1-17.2,12.3c0.9,0.3,1.8,0.6,2.6,0.9c2.6,0.9,5.2,1.7,7.9,2.1c4.8,0.8,9.3,0.3,13.5-2.2
	C114,92.7,117.7,89.4,117.7,89.3C117.8,89.3,117.8,89.3,117.7,89.3z M31.6,78.9c-0.1-0.3-3.3-19.5-3.7-22.1c0-0.1-0.1-0.1-0.1,0
	c-1,4.1-1.5,14.2-1.6,15.3c-4.4-3.4-6.9-7.8-10.3-11.7c-0.1-0.1-0.2-0.1-0.1,0C19.8,75,30.9,78.8,31.6,78.9z M48.2,95.8
	c2.7-0.4,5.3-1.3,7.9-2.1c0.8-0.3,1.7-0.6,2.6-0.9c-6.5-3.2-12.2-7.4-17.2-12.3c-0.4-0.3-0.6-0.1-0.4,0.4c1.5,4.6,5.4,9.1,7.3,10.9
	c-0.1,0-0.1,0-0.2,0c-1.9,0.2-9,0.4-18.9-2.3c-0.1,0-0.1,0-0.1,0.1c0.1,0,3.7,3.3,5.3,4.2C38.9,96.1,43.4,96.6,48.2,95.8z
	 M107.4,97.3c-2.5,0.8-5,1-7.6,0.7c-2.6-0.3-5-1.2-7.5-2c-3.2-1.1-6.3-2.1-9.5-3.1c-0.2-0.1-0.4-0.1-0.6-0.2c3.6-1.9,6.8-4,9.6-6.4
	c5.1-4.4,9-9.5,11.6-15c7.2-15.1,5.9-41.1,5.9-41.1l-0.1-2h-2.2c-20.3,0-32.4-7.4-32.5-7.5l-1.3-0.8l-1.3,0.8c0,0-12.1,7.5-32.4,7.5
	h-2.2l-0.1,2c0,0.5-1.3,26.1,5.9,41.1c2.6,5.5,6.5,10.7,11.6,15c2.8,2.4,6.1,4.6,9.7,6.5c-0.1,0-0.3,0.1-0.4,0.1
	c-3.2,1-6.3,2.1-9.5,3.1c-2.4,0.8-4.9,1.7-7.5,2c-2.6,0.3-5.1,0.1-7.6-0.7c-1-0.5-0.8,0-0.8,0.1c0.7,1.1,1.6,1.9,2.6,2.6
	c1.6,1.1,3.4,1.7,5.3,2c2.4,0.4,4.9,0.4,7.2-0.5c1.9-0.7,3.7-1.7,5.3-2.9c1.8-1.3,3.6-2.6,5.6-3.6c0.9-0.5,1.9-0.7,2.9-0.7
	c0.6,0.3,1.1,0.5,1.7,0.7c-0.3,0.2-0.6,0.4-1,0.5c-3.3,1.8-6.6,3.6-9.4,6.1c-0.5,0.5-1,0.9-1.5,1.4c-0.4,0.4-0.5,0.7-0.2,1.1
	c0.5,0.6,0.9,1.1,1.7,1.4c0.5,0.1,1.2,0.1,2.2-0.9c0.1-0.1,4.5-4.1,6.7-5.9c1.1-0.9,2.3-1.8,3.6-2.6c0.1-0.1,0.2-0.1,0.3-0.2
	c0.2,0.1,0.4,0.1,0.6,0.2l0.8,0.3l0.9-0.3c0.2-0.1,0.5-0.2,0.7-0.3c0.1,0.1,0.3,0.1,0.4,0.2c1.2,0.8,2.5,1.7,3.6,2.6
	c2.2,1.8,6.6,5.8,6.7,5.9c1,0.9,1.7,1,2.2,0.9c0.8-0.3,1.2-0.7,1.7-1.4c0.3-0.4,0.3-0.7-0.2-1.1c-0.5-0.5-1-0.9-1.5-1.4
	c-2.9-2.5-6.1-4.3-9.4-6.1c-0.4-0.2-0.7-0.4-1.1-0.6c0.5-0.2,1.1-0.4,1.6-0.7c1.1,0,2.1,0.2,3.1,0.7c2,1,3.8,2.3,5.6,3.6
	c1.6,1.2,3.4,2.2,5.3,2.9c2.4,0.8,4.8,0.9,7.2,0.5c1.9-0.3,3.7-0.9,5.3-2c1-0.7,1.9-1.5,2.6-2.6C108.2,97.4,108.4,96.9,107.4,97.3z
	 M47.5,69.6c-5.6-11.8-5.7-31.1-5.6-37.3c16.6-0.4,27.8-5.5,31.5-7.4c3.7,1.9,15,7,31.5,7.4c0.1,6.2,0.1,25.5-5.6,37.3
	c-2.4,5-5.9,9.7-10.5,13.6c-4.2,3.5-9.3,6.5-15.4,8.8c-6.1-2.3-11.2-5.3-15.4-8.8C53.4,79.3,49.9,74.6,47.5,69.6z M81.1,43.2v-2.8
	h18.8v2.8h-2.3c-1.9,0-2.7,1.1-3.7,2.8c-1,1.8-17.9,35.5-17.9,35.5h-6c0,0-13.7-30-15.4-33.6c-1.7-3.6-2.7-4.7-5.8-4.7h-1.6v-2.8h23
	v2.8H65c-1.8,0-2.8,0.8-1.8,3c1.6,3.6,12.3,27.6,12.3,27.6S87.3,48.2,88,46.6c1-2.2-0.3-3.4-2.2-3.4C82.5,43.2,81.1,43.2,81.1,43.2z
	 M39.3,15.1c0.1-0.1,0-0.2-0.1-0.2c-1.2,0.9-6.3,5.5-6.9,5.3c-0.5-0.1,1.2-4.4,1.9-5.7c0,0,0-0.1,0,0c-3.2,2.7-5.3,6.8-5.7,10.8
	C31.5,23.8,36.8,18.4,39.3,15.1z"/>
</svg>
