<?xml version="1.0" encoding="utf-8"?>
<!-- Generator: Adobe Illustrator 23.0.3, SVG Export Plug-In . SVG Version: 6.00 Build 0)  -->
<svg version="1.1"
	 id="svg8" xmlns:cc="http://creativecommons.org/ns#" xmlns:dc="http://purl.org/dc/elements/1.1/" xmlns:inkscape="http://www.inkscape.org/namespaces/inkscape" xmlns:rdf="http://www.w3.org/1999/02/22-rdf-syntax-ns#" xmlns:sodipodi="http://sodipodi.sourceforge.net/DTD/sodipodi-0.dtd" xmlns:svg="http://www.w3.org/2000/svg"
	 xmlns="http://www.w3.org/2000/svg" xmlns:xlink="http://www.w3.org/1999/xlink" x="0px" y="0px" width="100px" height="100px"
	 viewBox="0 0 100 100" enable-background="new 0 0 100 100" xml:space="preserve">
<title  id="title907">GoogleMaps  logo</title>
<sodipodi:namedview  bordercolor="#666666" borderopacity="1.0" fit-margin-bottom="0" fit-margin-left="0" fit-margin-right="0.1" fit-margin-top="0.1" id="base" inkscape:current-layer="layer1" inkscape:cx="158.15263" inkscape:cy="100.08391" inkscape:document-units="px" inkscape:guide-bbox="true" inkscape:lockguides="true" inkscape:object-nodes="true" inkscape:pageopacity="0.0" inkscape:pageshadow="2" inkscape:snap-intersection-paths="false" inkscape:snap-object-midpoints="false" inkscape:window-height="1017" inkscape:window-maximized="1" inkscape:window-width="1920" inkscape:window-x="1358" inkscape:window-y="-8" inkscape:zoom="1" pagecolor="#ffffff" showgrid="false" showguides="true">
	</sodipodi:namedview>
<g id="layer1" transform="translate(-176.03052,-224.24971)" inkscape:groupmode="layer" inkscape:label="Capa 1">
	<g id="g5035" transform="matrix(0.98012243,0,0,0.98012243,3.4990592,5.794271)">
		<path id="rect1235" fill="#34A668" d="M184.7,235.5h72.8c4.2,0,7.7,3.4,7.7,7.7V316c0,4.2-3.4,7.7-7.7,7.7h-72.8
			c-4.2,0-7.7-3.4-7.7-7.7v-72.8C177.1,238.9,180.5,235.5,184.7,235.5z"/>
		<path id="path5000" inkscape:connector-curvature="0" fill="#5C88C5" d="M221.7,278.8l-42.5,42.5c1.4,1.5,3.4,2.4,5.5,2.4h72.8
			c2.5,0,4.7-1.2,6.1-3L221.7,278.8z"/>
		<path id="ellipse1239" inkscape:connector-curvature="0" sodipodi:nodetypes="ccccccccccccccccccccccc" fill="#DD4B3E" d="
			M251.4,223.2c-13.6,0-24.6,10.5-24.6,23.5c0,4,1,8,3.1,11.5l0,0c0.6,1,1.2,2.1,1.7,3.1c0.5,0.7,1,1.5,1.4,2.2
			c0.5,0.7,1,1.4,1.4,2.1c1.9,2.6,3.7,5.1,5.3,7.6c1.2,1.9,2.5,3.9,3.6,5.9c3.5,6,5.9,11.9,6.7,20.4l0,0c0.3,0.6,0.8,1,1.3,1
			c0.6,0,1.1-0.5,1.4-1.2c0.9-8.4,3.3-14.3,6.7-20.2c1.1-2,2.5-4,3.6-5.9c1.7-2.4,3.4-5,5.3-7.6c0.5-0.7,0.9-1.4,1.4-2.1
			c0.4-0.7,0.9-1.5,1.4-2.2c0.5-1,1.1-2.1,1.7-3.1l0,0c2.1-3.5,2.9-7.5,2.9-11.5C276,233.7,265,223.2,251.4,223.2L251.4,223.2z"/>
		<ellipse id="path1237" fill="#802D27" cx="251.4" cy="246.7" rx="8.5" ry="8.2"/>
		<path id="path1241" inkscape:connector-curvature="0" fill="#FFFFFF" d="M198,244.1c-6.8,0-12.4,5.6-12.4,12.6
			c0,7,5.6,12.6,12.4,12.6c4.5,0,7-1.4,9.3-3.7c2.2-2.3,3.1-5.7,3.1-9.2c0-0.5,0-1.1-0.1-1.6h-4.8h-0.9h-6.3v4.5h7.1
			c-0.3,1.1-0.8,2.1-1.6,2.9c-1.4,1.4-3,2.3-5.7,2.3c-4.2,0-7.6-3.5-7.6-7.8s3.4-7.8,7.6-7.8c2.1,0,3.8,0.6,5.3,1.9l3.5-3.5l0,0
			C204.4,245.1,201.4,244.1,198,244.1L198,244.1z M204.5,252.4L204.5,252.4L204.5,252.4L204.5,252.4z"/>
		<path id="path5005" inkscape:connector-curvature="0" fill="#C3C3C3" d="M234.5,265.6l-11.7,11.7l41.8,41.8c0.4-1,0.7-2,0.7-3.1
			v-45.7c-0.7,1-1.4,2-2,2.9c-1.2,1.9-2.5,3.9-3.6,5.9c-3.4,6-5.8,11.8-6.7,20.2c-0.2,0.7-0.8,1.2-1.4,1.2c-0.5,0-1-0.4-1.3-1l0,0
			c-0.9-8.5-3.3-14.4-6.7-20.4c-1.1-2-2.5-4-3.6-5.9C238.1,270.8,236.4,268.2,234.5,265.6L234.5,265.6L234.5,265.6z"/>
		<path id="rect4969" inkscape:connector-curvature="0" fill="#FDDC4F" d="M231.2,260.6L177,314.8v1.2c0,4.3,3.4,7.7,7.7,7.7h1.5
			l52.3-52.3c-1.3-1.9-2.6-3.8-4.1-5.7c-0.5-0.7-0.9-1.4-1.4-2.1c-0.4-0.7-0.9-1.5-1.4-2.2C231.5,261.1,231.4,260.8,231.2,260.6
			L231.2,260.6z"/>
		<path id="path4980" inkscape:connector-curvature="0" fill="#FFFFFF" d="M229.8,279l-9,9l35.6,35.6h1.1c4.3,0,7.7-3.4,7.7-7.7
			v-1.5L229.8,279z"/>
	</g>
</g>
</svg>
