<?xml version="1.0" encoding="utf-8"?>
<!-- Generator: Adobe Illustrator 23.0.3, SVG Export Plug-In . SVG Version: 6.00 Build 0)  -->
<svg version="1.1" id="Layer_1" xmlns="http://www.w3.org/2000/svg" xmlns:xlink="http://www.w3.org/1999/xlink" x="0px" y="0px"
	 width="80px" height="80px" viewBox="0 0 80 80" style="enable-background:new 0 0 80 80;" xml:space="preserve">
<style type="text/css">
	.st0{fill:#BE0000;}
</style>
<path class="st0" d="M20.5,62.5c-1.6,0-3.1-0.7-4.2-1.9c-1.1-1-1.6-2.6-1.2-4.3c0.9-3.7,7.3-8,15.4-10.3c0.1-0.2,0.2-0.4,0.3-0.6
	c0.3-0.5,0.5-1,0.8-1.5c4.2-8.4,3.7-19.3,3.3-23.6c-0.1-0.8-0.2-1.5-0.3-2.1l-0.1-0.8v-0.3c0-0.5,0-1.3,0.5-2l0.1-0.2l0.4-0.2
	c0.3-0.2,0.8-0.4,1.4-0.4c1.3,0,2.2,0.8,2.5,2.4v0.1c0.1,0.8,0.2,1.8,0.3,2.9c0.7,4.2,3.1,14.9,9.3,21.9c0.4,0.5,1.1,1.2,1.6,1.8
	c7.4,0.6,15.5,2.7,17.5,6.4c0.7,1,0.8,2.5,0.3,4v0.1L68.3,54c-1.2,2-3.1,3.1-5.2,3.1c-3.8,0-8.3-2.9-14.3-9c-2.6,0-4.7,0.1-6.4,0.4
	c-0.4,0-0.9,0.1-1.3,0.1c-0.5,0.1-1.1,0.1-1.5,0.2c-1.8,0.2-3.9,0.7-5.6,1.1C29,58.3,24.5,62.5,20.5,62.5 M19.7,57.4
	c0.3,0.2,0.6,0.3,0.7,0.3c1,0,3.1-1.3,5.8-4.9C22.4,54.6,20.2,56.5,19.7,57.4 M56.5,49.1c3.5,2.9,5.5,3.4,6.4,3.4
	c0.6,0,0.8-0.1,1-0.4C63.2,51.3,60.7,50,56.5,49.1 M39.2,35c-0.6,3.4-1.5,6.6-2.7,9.5c0.8-0.1,1.5-0.2,2.3-0.3
	c0.7,0,1.6-0.1,2.3-0.2l0.4-0.1c0.8-0.1,1.7-0.2,2.6-0.3c0.1,0,0.2,0,0.4,0C42.4,41.1,40.7,38.2,39.2,35"/>
<path class="st0" d="M40,80C17.9,80,0,62.1,0,40S17.9,0,40,0s40,17.9,40,40S62.1,80,40,80 M40,2.2c-20.8,0-37.8,17-37.8,37.9
	c0,20.8,17,37.8,37.9,37.8c20.8,0,37.8-17,37.8-37.8C77.9,19.2,60.9,2.2,40,2.2"/>
</svg>
