<?xml version="1.0" encoding="utf-8"?>
<!-- Generator: Adobe Illustrator 23.0.3, SVG Export Plug-In . SVG Version: 6.00 Build 0)  -->
<svg version="1.1" id="Layer_1" xmlns="http://www.w3.org/2000/svg" xmlns:xlink="http://www.w3.org/1999/xlink" x="0px" y="0px"
	 width="80px" height="80px" viewBox="0 0 80 80" style="enable-background:new 0 0 80 80;" xml:space="preserve">
<style type="text/css">
	.st0{fill:#FFFFFF;}
</style>
<path class="st0" d="M23.8,49.7c-1.3,0-2.5-0.6-3.4-1.5c-0.9-0.8-1.3-2.1-1-3.4c0.7-3,5.8-6.4,12.3-8.2c0.1-0.2,0.2-0.3,0.2-0.5
	c0.2-0.4,0.4-0.8,0.6-1.2c3.4-6.7,3-15.4,2.6-18.9c-0.1-0.6-0.2-1.2-0.2-1.7L35,13.6v-0.2c0-0.4,0-1,0.4-1.6l0.1-0.2l0.3-0.2
	c0.2-0.2,0.6-0.3,1.1-0.3c1,0,1.8,0.6,2,1.9v0.1c0.1,0.6,0.2,1.4,0.2,2.3c0.6,3.4,2.5,11.9,7.4,17.5c0.3,0.4,0.9,1,1.3,1.4
	c5.9,0.5,12.4,2.2,14,5.1c0.6,0.8,0.6,2,0.2,3.2v0.1L62,42.9c-1,1.6-2.5,2.5-4.2,2.5c-3,0-6.6-2.3-11.4-7.2c-2.1,0-3.8,0.1-5.1,0.3
	c-0.3,0-0.7,0.1-1,0.1c-0.4,0.1-0.9,0.1-1.2,0.2c-1.4,0.2-3.1,0.6-4.5,0.9C30.6,46.3,27,49.7,23.8,49.7 M23.1,45.6
	c0.2,0.2,0.5,0.2,0.6,0.2c0.8,0,2.5-1,4.6-3.9C25.3,43.4,23.5,44.9,23.1,45.6 M52.6,39c2.8,2.3,4.4,2.7,5.1,2.7
	c0.5,0,0.6-0.1,0.8-0.3C57.9,40.7,55.9,39.7,52.6,39 M38.7,27.7c-0.5,2.7-1.2,5.3-2.2,7.6c0.6-0.1,1.2-0.2,1.8-0.2
	c0.6,0,1.3-0.1,1.8-0.2l0.3-0.1c0.6-0.1,1.4-0.2,2.1-0.2c0.1,0,0.2,0,0.3,0C41.3,32.6,39.9,30.2,38.7,27.7"/>
<g>
	<path class="st0" d="M24.7,56.4c0.9-0.2,2.2-0.3,4-0.3c1.8,0,3.1,0.4,4,1.1c0.8,0.7,1.4,1.8,1.4,3c0,1.3-0.4,2.4-1.2,3.1
		c-1,1-2.5,1.4-4.3,1.4c-0.4,0-0.7,0-1-0.1v4.7h-3V56.4z M27.7,62.4c0.3,0.1,0.6,0.1,1,0.1c1.6,0,2.6-0.8,2.6-2.1
		c0-1.2-0.8-1.9-2.3-1.9c-0.6,0-1,0.1-1.2,0.1V62.4z"/>
	<path class="st0" d="M36.1,56.4c1.1-0.2,2.5-0.3,4-0.3c2.5,0,4.1,0.4,5.4,1.4c1.4,1,2.2,2.6,2.2,5c0,2.5-0.9,4.3-2.2,5.3
		c-1.4,1.2-3.5,1.7-6.1,1.7c-1.5,0-2.6-0.1-3.4-0.2V56.4z M39.1,67.1c0.3,0.1,0.7,0.1,1,0.1c2.7,0,4.5-1.5,4.5-4.6
		c0-2.7-1.6-4.2-4.1-4.2c-0.7,0-1.1,0.1-1.3,0.1V67.1z"/>
	<path class="st0" d="M49.7,56.2h8.1v2.4h-5.1v3h4.7v2.4h-4.7v5.3h-3V56.2z"/>
</g>
</svg>
