<?xml version="1.0" encoding="utf-8"?>
<!-- Generator: Adobe Illustrator 23.0.3, SVG Export Plug-In . SVG Version: 6.00 Build 0)  -->
<svg version="1.1" id="Capa_1" xmlns="http://www.w3.org/2000/svg" xmlns:xlink="http://www.w3.org/1999/xlink" x="0px" y="0px"
	 width="294.8px" height="294.8px" viewBox="0 0 294.8 294.8" enable-background="new 0 0 294.8 294.8" xml:space="preserve">
<path fill="#FFFFFF" d="M147.4,291.8C67.8,291.8,3,227.1,3,147.4S67.8,3,147.4,3s144.4,64.8,144.4,144.4c0,23-5.5,45.8-16,66.1
	c-10.1,19.6-24.9,36.9-42.7,50.1c-0.5,0.4-1.1,0.6-1.8,0.6c-1,0-1.8-0.4-2.4-1.2c-0.5-0.6-0.7-1.4-0.6-2.2c0.1-0.8,0.5-1.5,1.2-2
	c17.1-12.6,31.2-29.2,40.9-48c10.2-19.7,15.3-41,15.3-63.4C285.8,71.1,223.7,9,147.4,9S9,71.1,9,147.4s62.1,138.4,138.4,138.4
	c1.7,0,3,1.3,3,3S149.1,291.8,147.4,291.8z"/>
<path fill="#FFFFFF" d="M109.7,215.9c-1.9-1.1-3-3.1-3-5.2V79c0-3.3,2.7-6,6-6s6,2.7,6,6v121.1l88.8-52.9l-65.3-42.1
	c-2.8-1.8-3.6-5.5-1.8-8.3s5.5-3.6,8.3-1.8l73.5,47.3c1.7,1.1,2.8,3.1,2.7,5.1s-1.1,4-2.9,5.1l-106.2,63.2
	C113.9,216.9,111.6,216.9,109.7,215.9z"/>
</svg>
