<?xml version="1.0" encoding="utf-8"?>
<!-- Generator: Adobe Illustrator 23.0.3, SVG Export Plug-In . SVG Version: 6.00 Build 0)  -->
<svg version="1.1" id="Layer_1" xmlns="http://www.w3.org/2000/svg" xmlns:xlink="http://www.w3.org/1999/xlink" x="0px" y="0px"
	 width="40px" height="40px" viewBox="0 0 40 40" enable-background="new 0 0 40 40" xml:space="preserve">
<g id="web">
	<path fill="#D09C3F" d="M20.5,4.2L20.5,4.2L20.5,4.2L20.5,4.2C11.8,4.2,4.7,11.3,4.7,20s7,15.8,15.7,15.8l0,0l0,0l0,0
		c8.7,0,15.8-7.1,15.8-15.8C36.3,11.3,29.2,4.2,20.5,4.2z M20.5,34.5L20.5,34.5L20.5,34.5L20.5,34.5C12.5,34.5,6,28,6,20
		S12.5,5.5,20.5,5.5l0,0l0,0l0,0C28.5,5.5,35,12,35,20S28.5,34.5,20.5,34.5z"/>
	<path fill="#D09C3F" d="M25.5,13.6c-1.4,0.3-2.9,0.5-4.4,0.6v5.2h5.1C26.2,17.2,26,15.3,25.5,13.6z"/>
	<path fill="#D09C3F" d="M21.1,6.8V13c1.4,0,2.8-0.2,4.1-0.5C24.2,9.3,22.7,7.3,21.1,6.8z"/>
	<path fill="#D09C3F" d="M15.8,12.5c1.3,0.3,2.7,0.5,4.1,0.6V6.8C18.3,7.2,16.8,9.3,15.8,12.5z"/>
	<path fill="#D09C3F" d="M30,10.7c-1.7-1.7-3.9-3-6.4-3.6c1.1,1.2,2.1,2.9,2.7,5.1C27.6,11.8,28.8,11.3,30,10.7z"/>
	<path fill="#D09C3F" d="M27.4,19.4h6.3c-0.1-2.9-1.2-5.6-3-7.8c-1.3,0.7-2.7,1.3-4.1,1.7C27.1,15.1,27.4,17.2,27.4,19.4z"/>
	<path fill="#D09C3F" d="M14.7,19.4h5.2v-5.2c-1.5,0-3-0.2-4.4-0.6C15,15.3,14.7,17.2,14.7,19.4z"/>
	<path fill="#D09C3F" d="M26.3,20.6h-5.1v5.2c1.5,0,3,0.2,4.4,0.6C26,24.7,26.2,22.7,26.3,20.6z"/>
	<path fill="#D09C3F" d="M15.4,26.4c1.4-0.3,2.9-0.6,4.4-0.6v-5.2h-5.2C14.7,22.7,15,24.7,15.4,26.4z"/>
	<path fill="#D09C3F" d="M19.9,33.2V27c-1.4,0-2.8,0.2-4.1,0.6C16.7,30.6,18.3,32.7,19.9,33.2z"/>
	<path fill="#D09C3F" d="M23.6,32.9c2.5-0.6,4.7-1.9,6.4-3.6c-1.1-0.6-2.4-1.1-3.6-1.5C25.7,30,24.7,31.7,23.6,32.9z"/>
	<path fill="#D09C3F" d="M17.4,7.1C15,7.7,12.8,9,11.1,10.7c1.1,0.6,2.3,1.1,3.6,1.5C15.3,10,16.2,8.2,17.4,7.1z"/>
	<path fill="#D09C3F" d="M26.6,26.7c1.4,0.4,2.8,1,4.1,1.7c1.8-2.1,2.9-4.8,3-7.8h-6.3C27.4,22.8,27.1,24.8,26.6,26.7z"/>
	<path fill="#D09C3F" d="M21.1,26.9v6.2c1.5-0.5,3.1-2.5,4.1-5.7C23.9,27.2,22.5,27,21.1,26.9z"/>
	<path fill="#D09C3F" d="M14.3,13.3c-1.4-0.4-2.8-1-4.1-1.7c-1.8,2.1-2.9,4.8-3,7.8h6.3C13.6,17.2,13.9,15.1,14.3,13.3z"/>
	<path fill="#D09C3F" d="M13.5,20.6H7.2c0.1,2.9,1.2,5.6,3,7.8c1.3-0.7,2.6-1.3,4.1-1.7C13.9,24.8,13.6,22.8,13.5,20.6z"/>
	<path fill="#D09C3F" d="M11,29.3c1.7,1.7,3.9,3,6.3,3.6c-1.1-1.2-2.1-2.9-2.7-5.1C13.4,28.2,12.2,28.7,11,29.3z"/>
</g>
</svg>
